<?xml version="1.0" encoding="UTF-8"?><svg xmlns="http://www.w3.org/2000/svg" viewBox="0 0 266.69 155.5"><g id="Layer_2"><rect x="-23.89" y="-82.34" width="313.12" height="313.12" style="fill:#fff;"/></g><g id="Layer_1"><rect width="5.93" height="111" style="fill:#414141;"/><rect x="8.89" width="2.96" height="111" style="fill:#414141;"/><rect x="17.78" width="2.96" height="111" style="fill:#414141;"/><rect x="32.6" width="2.96" height="56" style="fill:#414141;"/><rect x="44.45" width="2.96" height="56" style="fill:#414141;"/><rect x="50.38" width="5.93" height="56" style="fill:#414141;"/><rect x="65.19" width="5.93" height="56" style="fill:#414141;"/><rect x="74.08" width="8.89" height="56" style="fill:#414141;"/><rect x="91.86" width="2.96" height="56" style="fill:#414141;"/><rect x="97.79" width="5.93" height="56" style="fill:#414141;"/><rect x="109.64" width="2.96" height="56" style="fill:#414141;"/><rect x="118.53" width="8.89" height="56" style="fill:#414141;"/><rect x="130.38" width="8.89" height="56" style="fill:#414141;"/><rect x="142.24" width="8.89" height="56" style="fill:#414141;"/><rect x="154.09" width="5.93" height="56" style="fill:#414141;"/><rect x="162.98" width="5.93" height="56" style="fill:#414141;"/><rect x="171.87" width="8.89" height="56" style="fill:#414141;"/><rect x="189.65" width="2.96" height="56" style="fill:#414141;"/><rect x="195.57" width="2.96" height="56" style="fill:#414141;"/><rect x="201.5" width="2.96" height="56" style="fill:#414141;"/><rect x="213.35" width="5.93" height="56" style="fill:#414141;"/><rect x="228.17" width="5.93" height="56" style="fill:#414141;"/><rect x="242.99" width="8.89" height="111" style="fill:#414141;"/><rect x="254.84" width="2.96" height="111" style="fill:#414141;"/><rect x="260.77" width="5.93" height="111" style="fill:#414141;"/><rect x="23.85" y="55" width="219" height="56" style="fill:none;"/><path d="M62.54,72.27c0,4.91-2.7,8.81-6.18,10.95,4.83,1.35,9.66,4.83,9.66,11.94,0,10.52-9.09,14.5-15.41,14.5h-17.75c-.43,0-.71-.28-.71-.71v-43.58l-5.61-.21c-.43,0-.71-.28-.71-.71v-3.84c0-.43.28-.71.71-.71h21.16c10.08,0,14.84,4.55,14.84,12.37ZM39.6,81.65h6.89c5.68,0,8.59-3.06,8.59-8.53,0-4.83-2.56-7.75-8.81-7.75h-6.68v16.28ZM58.14,95.23c0-5.33-3.76-8.6-10.08-8.6h-8.45v17.42h9.09c6.04,0,9.44-2.99,9.44-8.82Z" style="fill:#213c73;"/><path d="M76.67,65.37l-.57,7.54c0,.43-.28.71-.71.71h-4.05c-.43,0-.71-.28-.71-.71l-.35-12.3c0-.43.28-.71.71-.71h39.56c.43,0,.71.28.71.71l-.35,12.3c0,.43-.28.71-.71.71h-4.05c-.43,0-.71-.28-.71-.71l-.57-7.54h-10.37v43.58c0,.43-.28.71-.71.71h-6.04c-.43,0-.71-.28-.71-.71v-43.58h-10.37Z" style="fill:#213c73;"/><path d="M116.3,92.81l19.74-32.27c.21-.43.64-.64,1.06-.64h8.59c.43,0,.71.28.71.71v32.63h4.97c.43,0,.71.28.71.71v4.98c0,.43-.28.71-.71.71h-4.97v9.31c0,.43-.28.71-.71.71h-6.04c-.43,0-.71-.28-.71-.71v-9.31h-22.37c-.43,0-.71-.28-.71-.71v-4.69c0-.43,0-.78.43-1.42ZM138.96,93.24v-25.95l-15.48,25.95h15.48Z" style="fill:#f9c11f;"/><path d="M195.27,74.54c0,8.6-5.82,16.14-14.91,16.14h-8.81v18.27c0,.43-.28.71-.71.71h-6.04c-.43,0-.71-.28-.71-.71v-43.58l-5.61-.21c-.43,0-.71-.28-.71-.71v-3.84c0-.43.28-.71.71-.71h22.01c9.23,0,14.77,5.69,14.77,14.65ZM171.55,85.49h7.74c6.11,0,8.81-5.12,8.81-9.95,0-5.12-2.2-10.17-9.02-10.17h-7.53v20.12Z" style="fill:#213c73;"/><path d="M205.22,65.37l-.57,7.54c0,.43-.28.71-.71.71h-4.05c-.43,0-.71-.28-.71-.71l-.36-12.3c0-.43.28-.71.71-.71h39.55c.43,0,.71.28.71.71l-.36,12.3c0,.43-.28.71-.71.71h-4.05c-.43,0-.71-.28-.71-.71l-.57-7.54h-10.37v43.58c0,.43-.28.71-.71.71h-6.04c-.43,0-.71-.28-.71-.71v-43.58h-10.37Z" style="fill:#213c73;"/><path d="M93.87,119.15c-.12-.12-.19-.29-.19-.46,0-.36.29-.65.65-.65.17,0,.34.07.46.19l7.28,7.28h5.79c1.04,0,1.95.68,2.25,1.67l3.55,11.63c.03.1.05.22.05.33v5.07c0,.39-.31.7-.7.7h-33.04v-8.3h6.82c.39,0,.7-.32.7-.7v-8.44c0-.39-.32-.7-.7-.7h-6.82v-1.26h20.27l-6.36-6.36ZM106.67,138.72c0,.39.31.7.7.7h4.16c.39,0,.7-.32.7-.7,0-.07-.01-.14-.03-.2l-3.4-11.14c-.14-.44-.55-.75-1.01-.75h-.07c-.58,0-1.05.47-1.05,1.05v11.04h0ZM103.26,138.51c0,.58.47,1.05,1.05,1.05s1.06-.47,1.06-1.05v-10.83c0-.58-.47-1.05-1.06-1.05s-1.05.47-1.05,1.05v10.83ZM98.59,127.47c0-.39-.31-.7-.7-.7h-8.44c-.39,0-.7.31-.7.7v8.44c0,.39.31.7.7.7h8.44c.39,0,.7-.32.7-.7v-8.44ZM99.85,127.69v10.83c0,.58.47,1.05,1.05,1.05s1.05-.47,1.05-1.05v-10.83c0-.58-.47-1.05-1.05-1.05-.58,0-1.05.47-1.05,1.05Z" style="fill:#213c73;"/><path d="M97.48,146.32h7.09c-.58,1.44-1.99,2.39-3.54,2.39s-2.96-.95-3.54-2.39Z" style="fill:#213c73;"/><path d="M89.05,146.32h7.09c-.58,1.44-1.99,2.39-3.54,2.39s-2.96-.95-3.54-2.39Z" style="fill:#213c73;"/><path d="M209.24,149.41H66.54v1.27h142.7v-1.27Z" style="fill:#213c73;"/><path d="M196.65,116.93H20.74v.7h175.91v-.7Z" style="fill:#213c73;"/><path d="M209.94,143.43c.06,0,.11,0,.17-.02l32.34-8.09c.31-.08.53-.36.53-.68v-16.14c0-.85-.69-1.55-1.55-1.55-.13,0-.26.02-.38.05l-30.66,7.82c-.68.17-1.16.79-1.16,1.5v16.41c0,.39.31.7.7.7ZM234.9,120.7c0-.39.32-.7.7-.7h5.27c.39,0,.7.31.7.7v8.44c0,.39-.31.7-.7.7h-5.27c-.39,0-.7-.31-.7-.7v-8.44ZM226.81,122.77c0-.39.32-.7.7-.7h5.27c.39,0,.7.32.7.7v8.44c0,.39-.32.7-.7.7h-5.27c-.39,0-.7-.32-.7-.7v-8.44ZM218.73,124.83c0-.39.31-.7.7-.7h5.27c.39,0,.7.32.7.7v8.44c0,.39-.32.7-.7.7h-5.27c-.39,0-.7-.32-.7-.7v-8.44h0ZM210.64,126.89c0-.39.31-.7.7-.7h5.27c.39,0,.7.32.7.7v8.44c0,.39-.31.7-.7.7h-5.27c-.39,0-.7-.32-.7-.7v-8.44Z" style="fill:#213c73;"/><path d="M242.99,140.97l-33.75,8.44v1.27l33.75-8.43v-1.27Z" style="fill:#213c73;"/><path d="M217.07,143.9c0,1.13.91,2.04,2.04,2.04s2.04-.91,2.04-2.04-.91-2.04-2.04-2.04-2.04.91-2.04,2.04Z" style="fill:#213c73;"/><path d="M212,145.28c0,1.13.91,2.04,2.04,2.04s2.04-.91,2.04-2.04-.91-2.04-2.04-2.04-2.04.91-2.04,2.04Z" style="fill:#213c73;"/><path d="M231.02,140.41c0,1.13.91,2.04,2.04,2.04s2.04-.91,2.04-2.04-.91-2.04-2.04-2.04-2.04.91-2.04,2.04Z" style="fill:#213c73;"/><path d="M236.2,139.14c0,1.13.91,2.04,2.04,2.04s2.04-.91,2.04-2.04-.91-2.04-2.04-2.04-2.04.91-2.04,2.04Z" style="fill:#213c73;"/><path d="M177.81,146.5c.39,0,.7-.31.7-.7,0-.03,0-.07,0-.1l-.6-4.19h-7.29v4.99h7.19Z" style="fill:#213c73;"/><path d="M160.79,126.49h-16.19v-1.3h13.22l-4.15-2.81,7.81-4.43,7.76,4.43h.05l-4.15,2.81h8.62c1.05,0,1.94.77,2.09,1.81l1.88,13.17h-33.12v-6.96h16.19c.38,0,.69-.31.69-.69s-.31-.69-.69-.69h-16.19v-1.3h16.19c.38,0,.69-.31.69-.69s-.31-.69-.69-.69h-16.19v-1.3h16.19c.38,0,.69-.31.69-.69s-.31-.69-.68-.69ZM170.19,132.51c0,.39.31.7.7.7h3.67c.39,0,.7-.31.7-.7,0-.03,0-.07,0-.1l-.76-5.31c-.05-.35-.35-.6-.7-.6h-2.91c-.39,0-.7.32-.7.7v5.31h0ZM162.75,125.2l3.98-2.7-5.26-3-5.27,2.99,4,2.71h2.55Z" style="fill:#213c73;"/><path d="M153.58,144.92c0-1.98,1.61-3.59,3.59-3.59s3.59,1.61,3.59,3.59-1.61,3.59-3.59,3.59c-1.98,0-3.59-1.61-3.59-3.59Z" style="fill:#213c73;"/><path d="M162.03,144.92c0-1.98,1.61-3.59,3.59-3.59s3.59,1.61,3.59,3.59-1.61,3.59-3.59,3.59c-1.98,0-3.59-1.61-3.59-3.59Z" style="fill:#213c73;"/><path d="M144.6,141.72v-.21h7.73v4.99h-7.73v-4.78Z" style="fill:#213c73;"/><path d="M27.07,125.27h-6.33v-1.41h28.26c1.15,0,2.15.77,2.45,1.88l2.96,11c.06.21.09.43.09.66v7.14c0,.62-.5,1.13-1.13,1.13h-13.08c-.62,0-1.12-.5-1.12-1.13v-.02s0-.08,0-.12c0-3.57-2.9-6.47-6.47-6.47s-6.47,2.9-6.47,6.47c0,.04,0,.08,0,.12v.02c0,.62-.5,1.13-1.12,1.13h-4.36v-10.55h6.33c.39,0,.7-.32.7-.7v-8.44c0-.39-.32-.7-.7-.7ZM47.81,137.23c0,.39.32.7.7.7h3.83c.39,0,.7-.32.7-.7,0-.06,0-.12-.02-.18l-2.97-11.08c-.13-.49-.58-.83-1.09-.83h-.03c-.62,0-1.13.5-1.13,1.13v10.97ZM44.16,136.95c0,.62.5,1.12,1.12,1.12s1.13-.5,1.13-1.12v-10.69c0-.62-.5-1.12-1.13-1.12s-1.12.5-1.12,1.12v10.69ZM40.5,136.95c0,.62.5,1.12,1.12,1.12s1.13-.5,1.13-1.12v-10.69c0-.62-.5-1.12-1.13-1.12s-1.12.5-1.12,1.12v10.69ZM29.18,134.41c0,.39.32.7.7.7h8.51c.39,0,.7-.32.7-.7v-8.44c0-.39-.31-.7-.7-.7h-8.51c-.39,0-.7.32-.7.7v8.44Z" style="fill:#213c73;"/><path d="M32.65,139.52c2.72,0,4.92,2.21,4.92,4.92s-2.2,4.92-4.92,4.92-4.92-2.21-4.92-4.92c0-2.72,2.21-4.92,4.92-4.92ZM32.65,147.15c1.55,0,2.81-1.26,2.81-2.81s-1.26-2.81-2.81-2.81-2.81,1.26-2.81,2.81c0,1.55,1.26,2.81,2.81,2.81Z" style="fill:#213c73;"/></g></svg>